# Blender v2.93.3 OBJ File: 'MESA.blend'
# www.blender.org
mtllib MESA.mtl
o Cube_Cube.002
v -3.000000 -0.200000 -1.000000
v -3.000000 0.200000 -1.000000
v 3.000000 -0.200000 -1.000000
v 3.000000 0.200000 -1.000000
v 3.000000 0.200000 4.823706
v 3.000000 -0.200000 4.823706
v -3.000000 0.200000 0.000000
v -3.000000 -0.200000 0.000000
v 1.995971 -0.200000 4.823706
v 1.995971 0.200000 4.823706
v 0.991942 -0.200000 3.901983
v 0.991942 0.200000 3.901983
v 1.995971 -0.200000 4.823706
v 1.864919 -0.200000 4.815821
v 1.736109 -0.200000 4.792299
v 1.611745 -0.200000 4.753544
v 1.493956 -0.200000 4.700219
v 1.384757 -0.200000 4.633235
v 1.286015 -0.200000 4.553740
v 1.199421 -0.200000 4.463093
v 1.126456 -0.200000 4.362845
v 1.068369 -0.200000 4.254712
v 1.026153 -0.200000 4.140543
v 1.000531 -0.200000 4.022293
v 1.995971 0.200000 4.823706
v 1.000531 0.200000 4.022293
v 1.026153 0.200000 4.140543
v 1.068369 0.200000 4.254712
v 1.126456 0.200000 4.362845
v 1.199421 0.200000 4.463093
v 1.286015 0.200000 4.553740
v 1.384757 0.200000 4.633235
v 1.493956 0.200000 4.700219
v 1.611745 0.200000 4.753544
v 1.736109 0.200000 4.792299
v 1.864919 0.200000 4.815821
v -2.004029 0.200000 1.000000
v -2.004029 -0.200000 1.000000
v -3.000000 -0.200000 0.000000
v -2.159833 -0.200000 0.987688
v -2.311801 -0.200000 0.951057
v -2.456191 -0.200000 0.891007
v -2.589446 -0.200000 0.809017
v -2.708287 -0.200000 0.707107
v -2.809787 -0.200000 0.587785
v -2.891446 -0.200000 0.453990
v -2.951254 -0.200000 0.309017
v -2.987738 -0.200000 0.156434
v -3.000000 0.200000 0.000000
v -2.987738 0.200000 0.156434
v -2.951254 0.200000 0.309017
v -2.891446 0.200000 0.453990
v -2.809787 0.200000 0.587785
v -2.708287 0.200000 0.707107
v -2.589446 0.200000 0.809017
v -2.456190 0.200000 0.891007
v -2.311801 0.200000 0.951057
v -2.159833 0.200000 0.987688
v 0.991942 -0.200000 1.491537
v 0.991942 0.200000 1.491537
v 0.506228 -0.200000 1.000000
v 0.506228 0.200000 1.000000
v 0.968169 -0.200000 1.339644
v 0.899179 -0.200000 1.202619
v 0.791723 -0.200000 1.093875
v 0.656321 -0.200000 1.024058
v 0.656321 0.200000 1.024058
v 0.791723 0.200000 1.093875
v 0.899179 0.200000 1.202619
v 0.968169 0.200000 1.339644
vt 0.375000 0.125000
vt 0.625000 0.125000
vt 0.625000 0.250000
vt 0.375000 0.250000
vt 0.875000 0.500000
vt 0.875000 0.625000
vt 0.875000 0.625000
vt 0.874489 0.644554
vt 0.872969 0.663627
vt 0.870477 0.681749
vt 0.867075 0.698473
vt 0.862845 0.713388
vt 0.857894 0.726127
vt 0.852341 0.736376
vt 0.846325 0.743882
vt 0.839993 0.748461
vt 0.833501 0.750000
vt 0.728907 0.750000
vt 0.722653 0.753007
vt 0.717012 0.750000
vt 0.712534 0.750000
vt 0.709660 0.750000
vt 0.708669 0.750000
vt 0.708669 0.750000
vt 0.708311 0.750000
vt 0.707244 0.750000
vt 0.705485 0.750000
vt 0.703064 0.750000
vt 0.700024 0.750000
vt 0.696416 0.750000
vt 0.692302 0.750000
vt 0.687752 0.750000
vt 0.682844 0.750000
vt 0.677662 0.750000
vt 0.672295 0.750000
vt 0.666835 0.750000
vt 0.666835 0.750000
vt 0.625000 0.750000
vt 0.625000 0.500000
vt 0.625000 0.833669
vt 0.375000 0.833669
vt 0.375000 0.833669
vt 0.625000 0.833669
vt 0.625000 0.964993
vt 0.375000 0.964993
vt 0.375000 0.958501
vt 0.625000 0.958501
vt 0.625000 0.853907
vt 0.375000 0.853907
vt 0.375000 0.791835
vt 0.625000 0.791835
vt 0.625000 0.791835
vt 0.375000 0.791835
vt 0.375000 0.750000
vt 0.375000 0.833669
vt 0.375000 0.833669
vt 0.625000 0.833669
vt 0.625000 0.833669
vt 0.375000 0.833669
vt 0.625000 0.833669
vt 0.375000 0.833669
vt 0.625000 0.833669
vt 0.375000 0.833669
vt 0.625000 0.833669
vt 0.375000 0.833669
vt 0.625000 0.833669
vt 0.375000 0.833669
vt 0.625000 0.833669
vt 0.375000 0.817302
vt 0.625000 0.817302
vt 0.375000 0.812752
vt 0.625000 0.812752
vt 0.375000 0.807844
vt 0.625000 0.807844
vt 0.375000 0.802662
vt 0.625000 0.802662
vt 0.375000 0.797295
vt 0.625000 0.797295
vt 0.375000 0.500000
vt 0.625000 0.847653
vt 0.375000 0.847653
vt 0.333165 0.750000
vt 0.333165 0.750000
vt 0.327705 0.750000
vt 0.322338 0.750000
vt 0.317156 0.750000
vt 0.312248 0.750000
vt 0.307698 0.750000
vt 0.303584 0.750000
vt 0.299976 0.750000
vt 0.296936 0.750000
vt 0.294515 0.750000
vt 0.292756 0.750000
vt 0.291689 0.750000
vt 0.291331 0.750000
vt 0.291331 0.750000
vt 0.290340 0.792455
vt 0.287466 0.750000
vt 0.282988 0.750000
vt 0.277347 0.750000
vt 0.271093 0.750000
vt 0.166499 0.750000
vt 0.160007 0.748461
vt 0.153675 0.743882
vt 0.147659 0.736376
vt 0.142106 0.726127
vt 0.137155 0.713388
vt 0.132926 0.698473
vt 0.129523 0.681749
vt 0.127031 0.663627
vt 0.125511 0.644554
vt 0.125000 0.625000
vt 0.125000 0.625000
vt 0.125000 0.500000
vt 0.375000 0.125000
vt 0.625000 0.125000
vt 0.625000 0.971325
vt 0.375000 0.971325
vt 0.625000 0.977341
vt 0.375000 0.977341
vt 0.625000 0.982894
vt 0.375000 0.982894
vt 0.625000 1.000000
vt 0.375000 1.000000
vt 0.375000 0.000000
vt 0.625000 0.000000
vt 0.625000 0.051527
vt 0.375000 0.051527
vt 0.625000 0.068251
vt 0.375000 0.068251
vt 0.625000 0.086373
vt 0.375000 0.086373
vt 0.625000 0.105446
vt 0.375000 0.105446
vt 0.375000 0.842012
vt 0.625000 0.842012
vt 0.375000 0.833669
vt 0.625000 0.833669
vn -1.0000 0.0000 0.0000
vn 0.0000 1.0000 0.0000
vn -0.9975 0.0000 0.0712
vn -0.0788 0.0000 0.9969
vn 0.0000 0.0000 1.0000
vn -0.9880 0.0000 0.1546
vn -0.9773 0.0000 0.2118
vn -0.9379 0.0000 0.3468
vn -0.8809 0.0000 0.4732
vn -0.8085 0.0000 0.5885
vn -0.7231 0.0000 0.6908
vn -0.6271 0.0000 0.7789
vn -0.5229 0.0000 0.8524
vn -0.4124 0.0000 0.9110
vn -0.2975 0.0000 0.9547
vn -0.1796 0.0000 0.9837
vn -0.0601 0.0000 0.9982
vn 1.0000 0.0000 0.0000
vn -0.1583 0.0000 0.9874
vn 0.0000 -1.0000 -0.0000
vn 0.0000 0.0000 -1.0000
vn -0.2343 0.0000 0.9722
vn -0.3840 0.0000 0.9233
vn -0.5240 0.0000 0.8517
vn -0.6510 0.0000 0.7591
vn -0.7617 0.0000 0.6479
vn -0.8536 0.0000 0.5210
vn -0.9244 0.0000 0.3814
vn -0.9726 0.0000 0.2326
vn -0.9969 0.0000 0.0781
vn -0.4583 0.0000 0.8888
vn -0.7113 0.0000 0.7029
vn -0.8932 0.0000 0.4497
usemtl None
s off
f 8/1/1 7/2/1 2/3/1 1/4/1
f 2/5/2 7/6/2 49/7/2 50/8/2 51/9/2 52/10/2 53/11/2 54/12/2 55/13/2 56/14/2 57/15/2 58/16/2 37/17/2 62/18/2 67/19/2 68/20/2 69/21/2 70/22/2 60/23/2 12/24/2 26/25/2 27/26/2 28/27/2 29/28/2 30/29/2 31/30/2 32/31/2 33/32/2 34/33/2 35/34/2 36/35/2 25/36/2 10/37/2 5/38/2 4/39/2
f 12/40/3 11/41/3 24/42/3 26/43/3
f 58/44/4 40/45/4 38/46/4 37/47/4
f 62/48/5 37/47/5 38/46/5 61/49/5
f 9/50/5 10/51/5 25/52/5 13/53/5
f 6/54/5 5/38/5 10/51/5 9/50/5
f 63/55/6 59/56/6 60/57/6 70/58/6
f 26/43/7 24/42/7 23/59/7 27/60/7
f 27/60/8 23/59/8 22/61/8 28/62/8
f 28/62/9 22/61/9 21/63/9 29/64/9
f 29/64/10 21/63/10 20/65/10 30/66/10
f 30/66/11 20/65/11 19/67/11 31/68/11
f 31/68/12 19/67/12 18/69/12 32/70/12
f 32/70/13 18/69/13 17/71/13 33/72/13
f 33/72/14 17/71/14 16/73/14 34/74/14
f 34/74/15 16/73/15 15/75/15 35/76/15
f 35/76/16 15/75/16 14/77/16 36/78/16
f 36/78/17 14/77/17 13/53/17 25/52/17
f 4/39/18 5/38/18 6/54/18 3/79/18
f 67/80/19 62/48/19 61/49/19 66/81/19
f 3/79/20 6/54/20 9/82/20 13/83/20 14/84/20 15/85/20 16/86/20 17/87/20 18/88/20 19/89/20 20/90/20 21/91/20 22/92/20 23/93/20 24/94/20 11/95/20 59/96/20 63/97/20 64/98/20 65/99/20 66/100/20 61/101/20 38/102/20 40/103/20 41/104/20 42/105/20 43/106/20 44/107/20 45/108/20 46/109/20 47/110/20 48/111/20 39/112/20 8/113/20 1/114/20
f 2/3/21 4/39/21 3/79/21 1/4/21
f 39/115/5 49/116/5 7/2/5 8/1/5
f 40/45/22 58/44/22 57/117/22 41/118/22
f 41/118/23 57/117/23 56/119/23 42/120/23
f 42/120/24 56/119/24 55/121/24 43/122/24
f 43/122/25 55/121/25 54/123/25 44/124/25
f 44/125/26 54/126/26 53/127/26 45/128/26
f 45/128/27 53/127/27 52/129/27 46/130/27
f 46/130/28 52/129/28 51/131/28 47/132/28
f 47/132/29 51/131/29 50/133/29 48/134/29
f 48/134/30 50/133/30 49/116/30 39/115/30
f 59/56/1 11/41/1 12/40/1 60/57/1
f 67/80/31 66/81/31 65/135/31 68/136/31
f 68/136/32 65/135/32 64/137/32 69/138/32
f 69/138/33 64/137/33 63/55/33 70/58/33
