# Blender v2.93.3 OBJ File: 'SILLA.blend'
# www.blender.org
mtllib SILLA.mtl
o Cylinder_Cylinder.002
v 0.000000 -0.400000 -1.000000
v 0.195090 -0.400000 -0.980785
v 0.382683 -0.400000 -0.923880
v 0.555570 -0.400000 -0.831470
v 0.707107 -0.400000 -0.707107
v 0.831470 -0.400000 -0.555570
v 0.923880 -0.400000 -0.382683
v 0.980785 -0.400000 -0.195090
v 1.000000 -0.400000 0.000000
v 0.980785 -0.400000 0.195090
v 0.923880 -0.400000 0.382683
v 0.831470 -0.400000 0.555570
v 0.707107 -0.400000 0.707107
v 0.555570 -0.400000 0.831470
v 0.382683 -0.400000 0.923880
v 0.195090 -0.400000 0.980785
v -0.000000 -0.400000 1.000000
v -0.195090 -0.400000 0.980785
v -0.382683 -0.400000 0.923880
v -0.555570 -0.400000 0.831470
v -0.707107 -0.400000 0.707107
v -0.831469 -0.400000 0.555570
v -0.923880 -0.400000 0.382684
v -0.980785 -0.400000 0.195090
v -1.000000 -0.400000 -0.000000
v -0.980785 -0.400000 -0.195090
v -0.923879 -0.400000 -0.382684
v -0.831470 -0.400000 -0.555570
v -0.707107 -0.400000 -0.707107
v -0.555570 -0.400000 -0.831470
v -0.382683 -0.400000 -0.923880
v -0.195090 -0.400000 -0.980785
v 0.000000 0.259468 -0.999336
v 0.194961 0.259468 -0.980134
v 0.382429 0.259468 -0.923266
v 0.555202 0.259468 -0.830918
v 0.706637 0.259468 -0.706637
v 0.830918 0.259468 -0.555201
v 0.923266 0.259468 -0.382429
v 0.980134 0.259468 -0.194961
v 0.999336 0.259468 0.000000
v 0.980134 0.259468 0.194961
v 0.923266 0.259468 0.382429
v 0.830918 0.259468 0.555201
v 0.706637 0.259468 0.706637
v 0.555201 0.259468 0.830918
v 0.382430 0.259468 0.923266
v 0.194961 0.259468 0.980134
v -0.000000 0.259468 0.999336
v -0.194961 0.259468 0.980134
v -0.382429 0.259468 0.923266
v -0.555202 0.259468 0.830918
v -0.706637 0.259468 0.706638
v -0.830918 0.259468 0.555202
v -0.923266 0.259468 0.382430
v -0.980134 0.259468 0.194961
v -0.999336 0.259468 -0.000000
v -0.980134 0.259468 -0.194961
v -0.923266 0.259468 -0.382430
v -0.830918 0.259468 -0.555201
v -0.706638 0.259468 -0.706637
v -0.555202 0.259468 -0.830918
v -0.382429 0.259468 -0.923266
v -0.194961 0.259468 -0.980134
v 0.000000 0.383624 -0.689075
v 0.000000 0.260167 -0.999336
v 0.000000 0.367084 -0.844160
v 0.000000 0.321896 -0.957723
v 0.134432 0.383624 -0.675834
v 0.194961 0.260167 -0.980134
v 0.164687 0.367084 -0.827939
v 0.186842 0.321896 -0.939321
v 0.263698 0.383624 -0.636622
v 0.382429 0.260167 -0.923266
v 0.323046 0.367084 -0.779902
v 0.366505 0.321896 -0.884821
v 0.382829 0.383624 -0.572945
v 0.555201 0.260167 -0.830917
v 0.468990 0.367084 -0.701893
v 0.532082 0.321896 -0.796318
v 0.487250 0.383624 -0.487249
v 0.706637 0.260167 -0.706637
v 0.596911 0.367084 -0.596911
v 0.677212 0.321896 -0.677212
v 0.572945 0.383624 -0.382830
v 0.830917 0.260167 -0.555201
v 0.701893 0.367084 -0.468990
v 0.796318 0.321896 -0.532082
v 0.636622 0.383624 -0.263697
v 0.923266 0.260167 -0.382429
v 0.779902 0.367084 -0.323046
v 0.884821 0.321896 -0.366505
v 0.675834 0.383624 -0.134432
v 0.980134 0.260167 -0.194961
v 0.827939 0.367084 -0.164687
v 0.939321 0.321896 -0.186843
v 0.689075 0.383624 -0.000000
v 0.999336 0.260167 0.000000
v 0.844160 0.367084 -0.000000
v 0.957723 0.321896 -0.000000
v 0.675834 0.383624 0.134432
v 0.980134 0.260167 0.194961
v 0.827939 0.367084 0.164688
v 0.939321 0.321896 0.186843
v 0.636622 0.383624 0.263697
v 0.923266 0.260167 0.382429
v 0.779902 0.367084 0.323046
v 0.884821 0.321896 0.366505
v 0.572945 0.383624 0.382829
v 0.830917 0.260167 0.555201
v 0.701893 0.367084 0.468990
v 0.796318 0.321896 0.532082
v 0.487249 0.383624 0.487249
v 0.706637 0.260167 0.706637
v 0.596911 0.367084 0.596911
v 0.677212 0.321896 0.677212
v 0.382829 0.383624 0.572945
v 0.555201 0.260167 0.830917
v 0.468990 0.367084 0.701893
v 0.532082 0.321896 0.796318
v 0.263697 0.383624 0.636622
v 0.382429 0.260167 0.923266
v 0.323046 0.367084 0.779902
v 0.366505 0.321896 0.884821
v 0.134432 0.383624 0.675834
v 0.194961 0.260167 0.980134
v 0.164687 0.367084 0.827939
v 0.186842 0.321896 0.939321
v -0.000000 0.383624 0.689075
v -0.000000 0.260167 0.999336
v -0.000000 0.367084 0.844160
v -0.000000 0.321896 0.957723
v -0.134431 0.383624 0.675834
v -0.194961 0.260167 0.980134
v -0.164687 0.367084 0.827939
v -0.186842 0.321896 0.939321
v -0.263697 0.383624 0.636622
v -0.382429 0.260167 0.923266
v -0.323046 0.367084 0.779902
v -0.366505 0.321896 0.884821
v -0.382829 0.383624 0.572945
v -0.555201 0.260167 0.830917
v -0.468990 0.367084 0.701893
v -0.532082 0.321896 0.796318
v -0.487250 0.383624 0.487249
v -0.706637 0.260167 0.706637
v -0.596911 0.367084 0.596911
v -0.677212 0.321896 0.677212
v -0.572945 0.383624 0.382829
v -0.830917 0.260167 0.555201
v -0.701893 0.367084 0.468990
v -0.796317 0.321896 0.532083
v -0.636622 0.383624 0.263698
v -0.923266 0.260167 0.382429
v -0.779902 0.367084 0.323046
v -0.884821 0.321896 0.366505
v -0.675834 0.383624 0.134432
v -0.980134 0.260167 0.194961
v -0.827939 0.367084 0.164687
v -0.939321 0.321896 0.186843
v -0.689075 0.383624 -0.000000
v -0.999336 0.260167 -0.000000
v -0.844160 0.367084 -0.000000
v -0.957723 0.321896 -0.000000
v -0.675834 0.383624 -0.134432
v -0.980134 0.260167 -0.194961
v -0.827939 0.367084 -0.164687
v -0.939321 0.321896 -0.186843
v -0.636622 0.383624 -0.263698
v -0.923266 0.260167 -0.382429
v -0.779902 0.367084 -0.323046
v -0.884821 0.321896 -0.366505
v -0.572945 0.383624 -0.382829
v -0.830917 0.260167 -0.555201
v -0.701893 0.367084 -0.468990
v -0.796318 0.321896 -0.532082
v -0.487250 0.383624 -0.487249
v -0.706637 0.260167 -0.706637
v -0.596911 0.367084 -0.596911
v -0.677213 0.321896 -0.677212
v -0.382829 0.383624 -0.572945
v -0.555201 0.260167 -0.830917
v -0.468990 0.367084 -0.701893
v -0.532082 0.321896 -0.796318
v -0.263698 0.383624 -0.636622
v -0.382429 0.260167 -0.923266
v -0.323046 0.367084 -0.779902
v -0.366505 0.321896 -0.884821
v -0.134432 0.383624 -0.675834
v -0.194961 0.260167 -0.980134
v -0.164687 0.367084 -0.827939
v -0.186842 0.321896 -0.939321
vt 0.031250 0.920781
vt 0.031250 0.921227
vt 0.000000 0.921227
vt 0.000000 0.920781
vt 0.937500 0.920781
vt 0.937500 0.921227
vt 0.906250 0.921227
vt 0.906250 0.920781
vt 0.875000 0.921227
vt 0.875000 0.920781
vt 0.843750 0.921227
vt 0.843750 0.920781
vt 0.812500 0.921227
vt 0.812500 0.920781
vt 0.781250 0.921227
vt 0.781250 0.920781
vt 0.750000 0.921227
vt 0.750000 0.920781
vt 0.718750 0.921227
vt 0.718750 0.920781
vt 0.687500 0.921227
vt 0.687500 0.920781
vt 0.656250 0.921227
vt 0.656250 0.920781
vt 0.625000 0.921227
vt 0.625000 0.920781
vt 0.593750 0.921227
vt 0.593750 0.920781
vt 0.562500 0.921227
vt 0.562500 0.920781
vt 0.531250 0.921227
vt 0.531250 0.920781
vt 0.500000 0.921227
vt 0.500000 0.920781
vt 0.468750 0.921227
vt 0.468750 0.920781
vt 0.437500 0.921227
vt 0.437500 0.920781
vt 0.406250 0.921227
vt 0.406250 0.920781
vt 0.375000 0.921227
vt 0.375000 0.920781
vt 0.343750 0.921227
vt 0.343750 0.920781
vt 0.312500 0.921227
vt 0.312500 0.920781
vt 0.281250 0.921227
vt 0.281250 0.920781
vt 0.250000 0.921227
vt 0.250000 0.920781
vt 0.218750 0.921227
vt 0.218750 0.920781
vt 0.218750 0.921227
vt 0.187500 0.921227
vt 0.187500 0.920781
vt 0.156250 0.921227
vt 0.156250 0.920781
vt 0.125000 0.921227
vt 0.125000 0.920781
vt 0.093750 0.921227
vt 0.093750 0.920781
vt 0.062500 0.921227
vt 0.062500 0.920781
vt 1.000000 0.920781
vt 1.000000 0.921227
vt 0.968750 0.921227
vt 0.968750 0.920781
vt 0.750000 0.490000
vt 0.796822 0.485388
vt 0.841844 0.471731
vt 0.883337 0.449553
vt 0.919706 0.419706
vt 0.949553 0.383337
vt 0.971731 0.341844
vt 0.985388 0.296822
vt 0.990000 0.250000
vt 0.985388 0.203178
vt 0.971731 0.158156
vt 0.949553 0.116663
vt 0.919706 0.080294
vt 0.883337 0.050447
vt 0.841844 0.028269
vt 0.796822 0.014612
vt 0.750000 0.010000
vt 0.703178 0.014612
vt 0.658156 0.028269
vt 0.616663 0.050447
vt 0.580294 0.080294
vt 0.550447 0.116663
vt 0.528269 0.158156
vt 0.514612 0.203178
vt 0.510000 0.250000
vt 0.514612 0.296822
vt 0.528269 0.341844
vt 0.550447 0.383337
vt 0.580294 0.419706
vt 0.616663 0.449553
vt 0.658156 0.471731
vt 0.703178 0.485388
vt 0.031250 0.500000
vt 0.000000 0.500000
vt 0.062500 0.500000
vt 0.093750 0.500000
vt 0.125000 0.500000
vt 0.156250 0.500000
vt 0.187500 0.500000
vt 0.218750 0.500000
vt 0.250000 0.500000
vt 0.281250 0.500000
vt 0.312500 0.500000
vt 0.343750 0.500000
vt 0.375000 0.500000
vt 0.406250 0.500000
vt 0.437500 0.500000
vt 0.468750 0.500000
vt 0.500000 0.500000
vt 0.531250 0.500000
vt 0.562500 0.500000
vt 0.593750 0.500000
vt 0.625000 0.500000
vt 0.656250 0.500000
vt 0.687500 0.500000
vt 0.718750 0.500000
vt 0.750000 0.500000
vt 0.781250 0.500000
vt 0.812500 0.500000
vt 0.843750 0.500000
vt 0.875000 0.500000
vt 0.906250 0.500000
vt 0.937500 0.500000
vt 0.968750 0.500000
vt 1.000000 0.500000
vt 0.999350 0.960618
vt 0.969400 0.960618
vt 0.997575 1.000000
vt 0.971175 1.000000
vt 0.289556 0.448862
vt 0.250000 0.452758
vt 0.250000 0.415508
vt 0.282289 0.412328
vt 0.968100 0.960618
vt 0.938150 0.960618
vt 0.966325 1.000000
vt 0.939925 1.000000
vt 0.327592 0.437324
vt 0.313337 0.402910
vt 0.936850 0.960618
vt 0.906900 0.960618
vt 0.935075 1.000000
vt 0.908675 1.000000
vt 0.362646 0.418587
vt 0.341952 0.387615
vt 0.905600 0.960618
vt 0.875650 0.960618
vt 0.903825 1.000000
vt 0.877425 1.000000
vt 0.393372 0.393372
vt 0.367032 0.367032
vt 0.874350 0.960618
vt 0.844400 0.960618
vt 0.872575 1.000000
vt 0.846175 1.000000
vt 0.418587 0.362646
vt 0.387615 0.341952
vt 0.843100 0.960618
vt 0.813150 0.960618
vt 0.841325 1.000000
vt 0.814925 1.000000
vt 0.437324 0.327592
vt 0.402910 0.313337
vt 0.811850 0.960618
vt 0.781900 0.960618
vt 0.810075 1.000000
vt 0.783675 1.000000
vt 0.448862 0.289556
vt 0.412328 0.282289
vt 0.780600 0.960618
vt 0.750650 0.960618
vt 0.778825 1.000000
vt 0.752425 1.000000
vt 0.452758 0.250000
vt 0.415508 0.250000
vt 0.749350 0.960618
vt 0.719400 0.960618
vt 0.747575 1.000000
vt 0.721175 1.000000
vt 0.448862 0.210444
vt 0.412328 0.217711
vt 0.718100 0.960618
vt 0.688150 0.960618
vt 0.716325 1.000000
vt 0.689925 1.000000
vt 0.437324 0.172408
vt 0.402910 0.186663
vt 0.686850 0.960618
vt 0.656900 0.960618
vt 0.685075 1.000000
vt 0.658675 1.000000
vt 0.418587 0.137354
vt 0.387615 0.158048
vt 0.655600 0.960618
vt 0.625650 0.960618
vt 0.653825 1.000000
vt 0.627425 1.000000
vt 0.393372 0.106628
vt 0.367032 0.132968
vt 0.624350 0.960618
vt 0.594400 0.960618
vt 0.622575 1.000000
vt 0.596175 1.000000
vt 0.362646 0.081413
vt 0.341952 0.112385
vt 0.593100 0.960618
vt 0.563150 0.960618
vt 0.591325 1.000000
vt 0.564925 1.000000
vt 0.327592 0.062676
vt 0.313337 0.097090
vt 0.561850 0.960618
vt 0.531900 0.960618
vt 0.560075 1.000000
vt 0.533675 1.000000
vt 0.289556 0.051138
vt 0.282289 0.087672
vt 0.530600 0.960618
vt 0.500650 0.960618
vt 0.528825 1.000000
vt 0.502425 1.000000
vt 0.250000 0.047242
vt 0.250000 0.084492
vt 0.499350 0.960618
vt 0.469400 0.960618
vt 0.497575 1.000000
vt 0.471175 1.000000
vt 0.210444 0.051138
vt 0.217711 0.087672
vt 0.468100 0.960618
vt 0.438150 0.960618
vt 0.466325 1.000000
vt 0.439925 1.000000
vt 0.172408 0.062676
vt 0.186663 0.097090
vt 0.436850 0.960618
vt 0.406900 0.960618
vt 0.435075 1.000000
vt 0.408675 1.000000
vt 0.137354 0.081413
vt 0.158048 0.112385
vt 0.405600 0.960618
vt 0.375650 0.960618
vt 0.403825 1.000000
vt 0.377425 1.000000
vt 0.106628 0.106628
vt 0.132968 0.132968
vt 0.374350 0.960618
vt 0.344400 0.960618
vt 0.372575 1.000000
vt 0.346175 1.000000
vt 0.081413 0.137354
vt 0.112385 0.158048
vt 0.343100 0.960618
vt 0.313150 0.960618
vt 0.341325 1.000000
vt 0.314925 1.000000
vt 0.062676 0.172408
vt 0.097090 0.186663
vt 0.311850 0.960618
vt 0.281900 0.960618
vt 0.310075 1.000000
vt 0.283675 1.000000
vt 0.051138 0.210444
vt 0.087672 0.217711
vt 0.280600 0.960618
vt 0.250650 0.960618
vt 0.278825 1.000000
vt 0.252425 1.000000
vt 0.047242 0.250000
vt 0.084491 0.250000
vt 0.249350 0.960618
vt 0.219400 0.960618
vt 0.247575 1.000000
vt 0.221175 1.000000
vt 0.051138 0.289556
vt 0.087672 0.282289
vt 0.218100 0.960618
vt 0.188150 0.960618
vt 0.216325 1.000000
vt 0.189925 1.000000
vt 0.062676 0.327592
vt 0.097090 0.313337
vt 0.186850 0.960618
vt 0.156900 0.960618
vt 0.185075 1.000000
vt 0.158675 1.000000
vt 0.081413 0.362646
vt 0.112385 0.341952
vt 0.155600 0.960618
vt 0.125650 0.960618
vt 0.153825 1.000000
vt 0.127425 1.000000
vt 0.106628 0.393372
vt 0.132968 0.367032
vt 0.124350 0.960618
vt 0.094400 0.960618
vt 0.122575 1.000000
vt 0.096175 1.000000
vt 0.137354 0.418587
vt 0.158048 0.387615
vt 0.093100 0.960618
vt 0.063150 0.960618
vt 0.091325 1.000000
vt 0.064925 1.000000
vt 0.172408 0.437324
vt 0.186663 0.402910
vt 0.061850 0.960618
vt 0.031900 0.960618
vt 0.060075 1.000000
vt 0.033675 1.000000
vt 0.210444 0.448862
vt 0.217711 0.412328
vt 0.030600 0.960618
vt 0.000650 0.960618
vt 0.028825 1.000000
vt 0.002425 1.000000
vn -0.0980 0.0010 -0.9952
vn 0.4714 0.0010 -0.8819
vn 0.6344 0.0010 -0.7730
vn 0.7730 0.0011 -0.6344
vn 0.8819 0.0010 -0.4714
vn 0.9569 0.0010 -0.2903
vn 0.9952 0.0010 -0.0980
vn 0.9952 0.0010 0.0980
vn 0.9569 0.0010 0.2903
vn 0.8819 0.0011 0.4714
vn 0.7730 0.0010 0.6344
vn 0.6344 0.0010 0.7730
vn 0.4714 0.0010 0.8819
vn 0.2903 0.0010 0.9569
vn 0.0980 0.0010 0.9952
vn -0.0980 0.0010 0.9952
vn -0.2903 0.0010 0.9569
vn -0.4714 0.0011 0.8819
vn -0.6344 0.0010 0.7730
vn -0.7730 0.0009 0.6344
vn -0.8819 0.0010 0.4714
vn -0.9569 0.0010 0.2903
vn -0.9952 0.0010 0.0980
vn -0.9952 0.0010 -0.0980
vn -0.9569 0.0010 -0.2903
vn -0.8819 0.0011 -0.4714
vn -0.7730 0.0010 -0.6344
vn -0.6344 0.0010 -0.7730
vn -0.4714 0.0010 -0.8819
vn -0.2903 0.0010 -0.9569
vn 0.0980 0.0010 -0.9952
vn 0.2903 0.0010 -0.9569
vn 0.0000 -1.0000 0.0000
vn -0.8819 0.0010 -0.4714
vn -0.7730 0.0010 0.6344
vn -0.4714 0.0010 0.8819
vn 0.8819 0.0010 0.4714
vn 0.7730 0.0010 -0.6344
vn 0.0814 0.5571 -0.8264
vn 0.0364 0.9285 -0.3695
vn 0.0104 0.9943 -0.1060
vn 0.2411 0.5571 -0.7947
vn 0.1078 0.9285 -0.3553
vn 0.0309 0.9943 -0.1020
vn 0.3915 0.5571 -0.7324
vn 0.1750 0.9285 -0.3274
vn 0.0502 0.9943 -0.0940
vn 0.5268 0.5571 -0.6419
vn 0.2355 0.9285 -0.2870
vn 0.0676 0.9943 -0.0824
vn 0.6419 0.5571 -0.5268
vn 0.2870 0.9285 -0.2355
vn 0.0824 0.9943 -0.0676
vn 0.7324 0.5571 -0.3915
vn 0.3274 0.9285 -0.1750
vn 0.0940 0.9943 -0.0502
vn 0.7947 0.5571 -0.2411
vn 0.3553 0.9285 -0.1078
vn 0.1020 0.9943 -0.0309
vn 0.8264 0.5571 -0.0814
vn 0.3695 0.9285 -0.0364
vn 0.1060 0.9943 -0.0104
vn 0.8264 0.5571 0.0814
vn 0.3695 0.9285 0.0364
vn 0.1060 0.9943 0.0104
vn 0.7947 0.5571 0.2411
vn 0.3553 0.9285 0.1078
vn 0.1020 0.9943 0.0309
vn 0.7324 0.5571 0.3915
vn 0.3274 0.9285 0.1750
vn 0.0940 0.9943 0.0502
vn 0.6419 0.5571 0.5268
vn 0.2870 0.9285 0.2355
vn 0.0824 0.9943 0.0676
vn 0.5268 0.5571 0.6419
vn 0.2355 0.9285 0.2870
vn 0.0676 0.9943 0.0824
vn 0.3915 0.5571 0.7324
vn 0.1750 0.9285 0.3274
vn 0.0502 0.9943 0.0940
vn 0.2411 0.5571 0.7947
vn 0.1078 0.9285 0.3553
vn 0.0309 0.9943 0.1020
vn 0.0814 0.5571 0.8264
vn 0.0364 0.9285 0.3695
vn 0.0104 0.9943 0.1060
vn -0.0814 0.5571 0.8264
vn -0.0364 0.9285 0.3695
vn -0.0104 0.9943 0.1060
vn -0.2411 0.5571 0.7947
vn -0.1078 0.9285 0.3553
vn -0.0309 0.9943 0.1020
vn -0.3915 0.5571 0.7324
vn -0.1750 0.9285 0.3274
vn -0.0502 0.9943 0.0940
vn -0.5268 0.5571 0.6419
vn -0.2355 0.9285 0.2870
vn -0.0676 0.9943 0.0824
vn -0.6419 0.5571 0.5268
vn -0.2870 0.9285 0.2355
vn -0.0824 0.9943 0.0676
vn -0.7324 0.5571 0.3915
vn -0.3274 0.9285 0.1750
vn -0.0940 0.9943 0.0502
vn -0.7947 0.5571 0.2411
vn -0.3553 0.9285 0.1078
vn -0.1020 0.9943 0.0309
vn -0.8264 0.5571 0.0814
vn -0.3695 0.9285 0.0364
vn -0.1060 0.9943 0.0104
vn -0.8264 0.5571 -0.0814
vn -0.3695 0.9285 -0.0364
vn -0.1060 0.9943 -0.0104
vn -0.7947 0.5571 -0.2411
vn -0.3553 0.9285 -0.1078
vn -0.1020 0.9943 -0.0309
vn -0.7324 0.5571 -0.3915
vn -0.3274 0.9285 -0.1750
vn -0.0940 0.9943 -0.0502
vn -0.6419 0.5571 -0.5268
vn -0.2870 0.9285 -0.2355
vn -0.0824 0.9943 -0.0676
vn -0.5268 0.5571 -0.6419
vn -0.2355 0.9285 -0.2870
vn -0.0676 0.9943 -0.0824
vn -0.3915 0.5571 -0.7324
vn -0.1750 0.9285 -0.3274
vn -0.0502 0.9943 -0.0940
vn -0.2411 0.5571 -0.7947
vn -0.1078 0.9285 -0.3553
vn -0.0309 0.9943 -0.1020
vn -0.0814 0.5571 -0.8264
vn -0.0364 0.9285 -0.3695
vn -0.0104 0.9943 -0.1060
vn 0.0000 1.0000 -0.0000
usemtl None
s off
f 64/1/1 190/2/1 66/3/1 33/4/1
f 35/5/2 74/6/2 78/7/2 36/8/2
f 36/8/3 78/7/3 82/9/3 37/10/3
f 37/10/4 82/9/4 86/11/4 38/12/4
f 38/12/5 86/11/5 90/13/5 39/14/5
f 39/14/6 90/13/6 94/15/6 40/16/6
f 40/16/7 94/15/7 98/17/7 41/18/7
f 41/18/8 98/17/8 102/19/8 42/20/8
f 42/20/9 102/19/9 106/21/9 43/22/9
f 43/22/10 106/21/10 110/23/10 44/24/10
f 44/24/11 110/23/11 114/25/11 45/26/11
f 45/26/12 114/25/12 118/27/12 46/28/12
f 46/28/13 118/27/13 122/29/13 47/30/13
f 47/30/14 122/29/14 126/31/14 48/32/14
f 48/32/15 126/31/15 130/33/15 49/34/15
f 49/34/16 130/33/16 134/35/16 50/36/16
f 50/36/17 134/35/17 138/37/17 51/38/17
f 51/38/18 138/37/18 142/39/18 52/40/18
f 52/40/19 142/39/19 146/41/19 53/42/19
f 53/42/20 146/41/20 150/43/20 54/44/20
f 54/44/21 150/43/21 154/45/21 55/46/21
f 55/46/22 154/45/22 158/47/22 56/48/22
f 56/48/23 158/47/23 162/49/23 57/50/23
f 57/50/24 162/49/24 166/51/24 58/52/24
f 58/52/25 166/53/25 170/54/25 59/55/25
f 59/55/26 170/54/26 174/56/26 60/57/26
f 60/57/27 174/56/27 178/58/27 61/59/27
f 61/59/28 178/58/28 182/60/28 62/61/28
f 62/61/29 182/60/29 186/62/29 63/63/29
f 63/63/30 186/62/30 190/2/30 64/1/30
f 33/64/31 66/65/31 70/66/31 34/67/31
f 34/67/32 70/66/32 74/6/32 35/5/32
f 1/68/33 2/69/33 3/70/33 4/71/33 5/72/33 6/73/33 7/74/33 8/75/33 9/76/33 10/77/33 11/78/33 12/79/33 13/80/33 14/81/33 15/82/33 16/83/33 17/84/33 18/85/33 19/86/33 20/87/33 21/88/33 22/89/33 23/90/33 24/91/33 25/92/33 26/93/33 27/94/33 28/95/33 29/96/33 30/97/33 31/98/33 32/99/33
f 32/100/1 64/1/1 33/4/1 1/101/1
f 31/102/30 63/63/30 64/1/30 32/100/30
f 30/103/29 62/61/29 63/63/29 31/102/29
f 29/104/28 61/59/28 62/61/28 30/103/28
f 28/105/27 60/57/27 61/59/27 29/104/27
f 27/106/34 59/55/34 60/57/34 28/105/34
f 26/107/25 58/52/25 59/55/25 27/106/25
f 25/108/24 57/50/24 58/52/24 26/107/24
f 24/109/23 56/48/23 57/50/23 25/108/23
f 23/110/22 55/46/22 56/48/22 24/109/22
f 22/111/21 54/44/21 55/46/21 23/110/21
f 21/112/35 53/42/35 54/44/35 22/111/35
f 20/113/19 52/40/19 53/42/19 21/112/19
f 19/114/36 51/38/36 52/40/36 20/113/36
f 18/115/17 50/36/17 51/38/17 19/114/17
f 17/116/16 49/34/16 50/36/16 18/115/16
f 16/117/15 48/32/15 49/34/15 17/116/15
f 15/118/14 47/30/14 48/32/14 16/117/14
f 14/119/13 46/28/13 47/30/13 15/118/13
f 13/120/12 45/26/12 46/28/12 14/119/12
f 12/121/11 44/24/11 45/26/11 13/120/11
f 11/122/37 43/22/37 44/24/37 12/121/37
f 10/123/9 42/20/9 43/22/9 11/122/9
f 9/124/8 41/18/8 42/20/8 10/123/8
f 8/125/7 40/16/7 41/18/7 9/124/7
f 7/126/6 39/14/6 40/16/6 8/125/6
f 6/127/5 38/12/5 39/14/5 7/126/5
f 5/128/38 37/10/38 38/12/38 6/127/38
f 4/129/3 36/8/3 37/10/3 5/128/3
f 3/130/2 35/5/2 36/8/2 4/129/2
f 2/131/32 34/67/32 35/5/32 3/130/32
f 1/132/31 33/64/31 34/67/31 2/131/31
f 70/66/39 66/65/39 68/133/39 72/134/39
f 72/134/40 68/133/40 67/135/40 71/136/40
f 71/137/41 67/138/41 65/139/41 69/140/41
f 74/6/42 70/66/42 72/141/42 76/142/42
f 76/142/43 72/141/43 71/143/43 75/144/43
f 75/145/44 71/137/44 69/140/44 73/146/44
f 78/7/45 74/6/45 76/147/45 80/148/45
f 80/148/46 76/147/46 75/149/46 79/150/46
f 79/151/47 75/145/47 73/146/47 77/152/47
f 82/9/48 78/7/48 80/153/48 84/154/48
f 84/154/49 80/153/49 79/155/49 83/156/49
f 83/157/50 79/151/50 77/152/50 81/158/50
f 86/11/51 82/9/51 84/159/51 88/160/51
f 88/160/52 84/159/52 83/161/52 87/162/52
f 87/163/53 83/157/53 81/158/53 85/164/53
f 90/13/54 86/11/54 88/165/54 92/166/54
f 92/166/55 88/165/55 87/167/55 91/168/55
f 91/169/56 87/163/56 85/164/56 89/170/56
f 94/15/57 90/13/57 92/171/57 96/172/57
f 96/172/58 92/171/58 91/173/58 95/174/58
f 95/175/59 91/169/59 89/170/59 93/176/59
f 98/17/60 94/15/60 96/177/60 100/178/60
f 100/178/61 96/177/61 95/179/61 99/180/61
f 99/181/62 95/175/62 93/176/62 97/182/62
f 102/19/63 98/17/63 100/183/63 104/184/63
f 104/184/64 100/183/64 99/185/64 103/186/64
f 103/187/65 99/181/65 97/182/65 101/188/65
f 106/21/66 102/19/66 104/189/66 108/190/66
f 108/190/67 104/189/67 103/191/67 107/192/67
f 107/193/68 103/187/68 101/188/68 105/194/68
f 110/23/69 106/21/69 108/195/69 112/196/69
f 112/196/70 108/195/70 107/197/70 111/198/70
f 111/199/71 107/193/71 105/194/71 109/200/71
f 114/25/72 110/23/72 112/201/72 116/202/72
f 116/202/73 112/201/73 111/203/73 115/204/73
f 115/205/74 111/199/74 109/200/74 113/206/74
f 118/27/75 114/25/75 116/207/75 120/208/75
f 120/208/76 116/207/76 115/209/76 119/210/76
f 119/211/77 115/205/77 113/206/77 117/212/77
f 122/29/78 118/27/78 120/213/78 124/214/78
f 124/214/79 120/213/79 119/215/79 123/216/79
f 123/217/80 119/211/80 117/212/80 121/218/80
f 126/31/81 122/29/81 124/219/81 128/220/81
f 128/220/82 124/219/82 123/221/82 127/222/82
f 127/223/83 123/217/83 121/218/83 125/224/83
f 130/33/84 126/31/84 128/225/84 132/226/84
f 132/226/85 128/225/85 127/227/85 131/228/85
f 131/229/86 127/223/86 125/224/86 129/230/86
f 134/35/87 130/33/87 132/231/87 136/232/87
f 136/232/88 132/231/88 131/233/88 135/234/88
f 135/235/89 131/229/89 129/230/89 133/236/89
f 138/37/90 134/35/90 136/237/90 140/238/90
f 140/238/91 136/237/91 135/239/91 139/240/91
f 139/241/92 135/235/92 133/236/92 137/242/92
f 142/39/93 138/37/93 140/243/93 144/244/93
f 144/244/94 140/243/94 139/245/94 143/246/94
f 143/247/95 139/241/95 137/242/95 141/248/95
f 146/41/96 142/39/96 144/249/96 148/250/96
f 148/250/97 144/249/97 143/251/97 147/252/97
f 147/253/98 143/247/98 141/248/98 145/254/98
f 150/43/99 146/41/99 148/255/99 152/256/99
f 152/256/100 148/255/100 147/257/100 151/258/100
f 151/259/101 147/253/101 145/254/101 149/260/101
f 154/45/102 150/43/102 152/261/102 156/262/102
f 156/262/103 152/261/103 151/263/103 155/264/103
f 155/265/104 151/259/104 149/260/104 153/266/104
f 158/47/105 154/45/105 156/267/105 160/268/105
f 160/268/106 156/267/106 155/269/106 159/270/106
f 159/271/107 155/265/107 153/266/107 157/272/107
f 162/49/108 158/47/108 160/273/108 164/274/108
f 164/274/109 160/273/109 159/275/109 163/276/109
f 163/277/110 159/271/110 157/272/110 161/278/110
f 166/51/111 162/49/111 164/279/111 168/280/111
f 168/280/112 164/279/112 163/281/112 167/282/112
f 167/283/113 163/277/113 161/278/113 165/284/113
f 170/54/114 166/53/114 168/285/114 172/286/114
f 172/286/115 168/285/115 167/287/115 171/288/115
f 171/289/116 167/283/116 165/284/116 169/290/116
f 174/56/117 170/54/117 172/291/117 176/292/117
f 176/292/118 172/291/118 171/293/118 175/294/118
f 175/295/119 171/289/119 169/290/119 173/296/119
f 178/58/120 174/56/120 176/297/120 180/298/120
f 180/298/121 176/297/121 175/299/121 179/300/121
f 179/301/122 175/295/122 173/296/122 177/302/122
f 182/60/123 178/58/123 180/303/123 184/304/123
f 184/304/124 180/303/124 179/305/124 183/306/124
f 183/307/125 179/301/125 177/302/125 181/308/125
f 186/62/126 182/60/126 184/309/126 188/310/126
f 188/310/127 184/309/127 183/311/127 187/312/127
f 187/313/128 183/307/128 181/308/128 185/314/128
f 190/2/129 186/62/129 188/315/129 192/316/129
f 192/316/130 188/315/130 187/317/130 191/318/130
f 191/319/131 187/313/131 185/314/131 189/320/131
f 66/3/132 190/2/132 192/321/132 68/322/132
f 68/322/133 192/321/133 191/323/133 67/324/133
f 67/138/134 191/319/134 189/320/134 65/139/134
f 69/140/135 65/139/135 189/320/135 185/314/135 181/308/135 177/302/135 173/296/135 169/290/135 165/284/135 161/278/135 157/272/135 153/266/135 149/260/135 145/254/135 141/248/135 137/242/135 133/236/135 129/230/135 125/224/135 121/218/135 117/212/135 113/206/135 109/200/135 105/194/135 101/188/135 97/182/135 93/176/135 89/170/135 85/164/135 81/158/135 77/152/135 73/146/135
